{"title":"Booley (2010)","uid":8098811,"size":2011320710,"categoryP":"video","categoryS":"movies","magnet":"?xt=urn:btih:ded25cfe5ca6346bf7736ccb38e668394e40a3d8&amp;dn=Booley+%282010%29&amp;tr=udp%3A%2F%2Ftracker.openbittorrent.com%3A80&amp;tr=udp%3A%2F%2Fopen.demonii.com%3A1337&amp;tr=udp%3A%2F%2Ftracker.coppersurfer.tk%3A6969&amp;tr=udp%3A%2F%2Fexodus.desync.com%3A6969","seeders":0,"leechers":1,"uploader":"RadioResearch","files":3,"time":1359915719,"description":"ALL MY POSTS ARE SEEDBOX SUPPORTED!!!\n\n*******************************************************************************\n                                 Booley (2010)\n*******************************************************************************\n\n-------------------------------------------------------------------------------\n                              General Information\n-------------------------------------------------------------------------------\nType.................: Movie\n\n\n\nVideo Format.........: AVI\nVideo Bitrate........: 2760\nResolution...........: 20 x 404\nColor................: 8 bit\nFPS..................: 29.97\nSource...............: DVD 16x9\nOriginal Format......: NTSC\nGenre................: Horror\nIMDb Rating..........: 5.1\nMovie Information....: http://www.imdb.com/title/tt1646961\n\n-------------------------------------------------------------------------------\n                               Post Information\n-------------------------------------------------------------------------------\nPosted by............: RadioResearch\nPosted on............: 2/3/2013\n\n-------------------------------------------------------------------------------\n                                 Release Notes\n-------------------------------------------------------------------------------\nAngus Booley has been pushed around his whole life, but recently it seems it has \nbeen happening more than usual. He suspects his wife of adultery, his job gets \noutsourced to India, and his daughter Rose is being bullied by the most popular \ngirl in school. Finding salvation in a flamboyant self-help guru, Angus begins \nto turn his life around...by murdering all those who get in his way. He is the \nhammer...and they are the nails. \n\nEnjoy!\n\nRadioResearch\n\n1.  Please vote on IMDB and rate the movies I post.\n2.  Please seed as much as you can; don't leech and run.\n3.  A thank you now and then would be greatly appreciated.\n\n\n\nGeneral\nComplete name                            : G:AVIBooley \n(2010)BOOLEY_Title1.avi\nFormat                                   : AVI\nFormat/Info                              : Audio Video Interleave\nFormat profile                           : OpenDML\nFile size                                : 1.87 GiB\nDuration                                 : 1h 37mn\nOverall bit rate                         : 2 760 Kbps\nMovie name                               : BOOLEY\nWriting application                      : MEncoder 5.0\nWriting library                          : [= DigiArty videodll! =]\n\nVideo\nID                                       : 0\nFormat                                   : MPEG-4 Visual\nFormat profile                           : Simple@L1\nFormat settings, BVOP                    : No\nFormat settings, QPel                    : No\nFormat settings, GMC                     : No warppoints\nFormat settings, Matrix                  : Default (H.263)\nCodec ID                                 : DX50\nCodec ID/Hint                            : DivX 5\nDuration                                 : 1h 37mn\nBit rate                                 : 2 562 Kbps\nWidth                                    : 720 pixels\nHeight                                   : 404 pixels\nDisplay aspect ratio                     : 16:9\nFrame rate                               : 29.970 fps\nColor space                              : YUV\nChroma subsampling                       : 4:2:0\nBit depth                                : 8 bits\nScan type                                : Progressive\nCompression mode                         : Lossy\nBits/(Pixel*Frame)                       : 0.294\nStream size                              : 1.74 GiB (93%)\nWriting library                          : Lavc54.71.100\n\nAudio\nID                                       : 1\nFormat                                   : AC-3\nFormat/Info                              : Audio Coding 3\nMode extension                           : CM (complete main)\nFormat settings, Endianness              : Big\nCodec ID                                 : 2000\nDuration                                 : 1h 37mn\nBit rate mode                            : Constant\nBit rate                                 : 192 Kbps\nChannel(s)                               : 2 channels\nChannel positions                        : Front: L R\nSampling rate                            : 48.0 KHz\nBit depth                                : 16 bits\nCompression mode                         : Lossy\nStream size                              : 133 MiB (7%)\nAlignment                                : Split accross interleaves\nInterleave, duration                     : 500 ms (14.98 video frames)\nInterleave, preload duration             : 500 ms\n\n\n\n\n-------------------------------------------------------------------------------\nGenerated with Cool NFO Creator - http://fly.to/coolbeans\n-------------------------------------------------------------------------------\n","torrent":{"xt":"urn:btih:ded25cfe5ca6346bf7736ccb38e668394e40a3d8","amp;dn":"Booley+%282010%29","amp;tr":["udp%3A%2F%2Ftracker.openbittorrent.com%3A80","udp%3A%2F%2Fopen.demonii.com%3A1337","udp%3A%2F%2Ftracker.coppersurfer.tk%3A6969","udp%3A%2F%2Fexodus.desync.com%3A6969"],"infoHash":"ded25cfe5ca6346bf7736ccb38e668394e40a3d8","infoHashBuffer":{"type":"Buffer","data":[222,210,92,254,92,166,52,107,247,115,108,203,56,230,104,57,78,64,163,216]},"announce":[],"urlList":[]}}